<svg version="1.1" xmlns="http://www.w3.org/2000/svg" xmlns:xlink="http://www.w3.org/1999/xlink" width="512.000000pt" height="512.000000pt" viewBox="0,0,256,256"><g fill="#0cf2df" fill-rule="nonzero" stroke="none" stroke-width="1" stroke-linecap="butt" stroke-linejoin="miter" stroke-miterlimit="10" stroke-dasharray="" stroke-dashoffset="0" font-family="none" font-weight="none" font-size="none" text-anchor="none" style="mix-blend-mode: normal"><g transform="translate(-0.00021,-0.24792) scale(0.5,0.5)"><g transform="translate(0,512) scale(0.1,-0.1)"><path d="M295,4566c-141,-45 -243,-151 -279,-291c-14,-50 -16,-141 -16,-578v-518l25,-24c13,-14 36,-25 50,-25c14,0 37,11 50,25l25,24v226v225h2410h2410v-1145v-1146l25,-24c31,-32 69,-32 100,0l25,24v1438c0,1567 2,1501 -55,1600c-39,65 -114,134 -185,167c-64,31 -67,31 -251,34c-185,4 -187,3 -203,-19c-21,-31 -20,-72 3,-100c19,-23 25,-24 193,-29c187,-6 193,-7 260,-68c79,-71 83,-87 86,-349l3,-233h-2411h-2411l3,233c3,263 7,278 88,351c79,72 -88,66 2008,66c1361,0 1908,3 1931,11c53,19 69,81 31,119c-20,20 -33,20 -1947,19c-1528,0 -1936,-3 -1968,-13z"></path><path d="M566,4336c-94,-35 -148,-106 -154,-202c-6,-84 15,-140 72,-192c116,-106 303,-69 367,73c22,48 25,142 6,188c-47,111 -183,173 -291,133zM703,4169c27,-33 23,-93 -9,-118c-55,-43 -134,-11 -134,55c0,44 15,72 43,84c32,14 79,3 100,-21z"></path><path d="M1136,4336c-94,-35 -148,-106 -154,-202c-6,-84 15,-140 72,-192c116,-106 303,-69 367,73c22,48 25,142 6,188c-47,111 -183,173 -291,133zM1273,4169c27,-33 23,-93 -9,-118c-55,-43 -134,-11 -134,55c0,44 15,72 43,84c32,14 79,3 100,-21z"></path><path d="M1706,4336c-94,-35 -148,-106 -154,-202c-6,-84 15,-140 72,-192c116,-106 303,-69 367,73c22,48 25,142 6,188c-47,111 -183,173 -291,133zM1843,4169c27,-33 23,-93 -9,-118c-55,-43 -134,-11 -134,55c0,44 15,72 43,84c32,14 79,3 100,-21z"></path><path d="M2904,3509c-17,-19 -19,-41 -22,-240l-3,-219h-120h-119v68c0,79 -12,129 -37,148c-26,19 -460,19 -486,0c-31,-24 -37,-75 -37,-318v-238h-120h-120v68c0,90 -14,136 -46,150c-34,16 -434,16 -468,0c-17,-7 -30,-24 -36,-47c-6,-21 -10,-187 -10,-393v-358h-128c-112,0 -131,-2 -145,-18c-24,-27 -22,-85 4,-108c21,-19 61,-19 1549,-19c1488,0 1528,0 1549,19c27,25 29,86 3,109c-15,14 -41,17 -145,17h-127v328c0,337 -6,394 -40,412c-10,6 -93,10 -189,10h-170l-3,304c-3,282 -4,305 -22,325c-18,20 -28,21 -256,21c-228,0 -238,-1 -256,-21zM3280,2755v-625h-120h-120v625v625h120h120zM2480,2630v-500h-120h-120v500v500h120h120zM2880,2515v-385h-120h-120v385v385h120h120zM1680,2460v-330h-120h-120v330v330h120h120zM3680,2430v-300h-120h-120v300v300h120h120zM2080,2345v-215h-120h-120v215v215h120h120z"></path><path d="M25,2935l-25,-24v-1003c0,-875 2,-1011 16,-1063c42,-163 176,-280 349,-305c96,-13 4294,-13 4390,0c173,25 307,142 349,305c9,32 16,97 16,143c0,75 -2,85 -25,107c-29,30 -64,32 -96,6c-22,-17 -25,-30 -30,-123c-7,-120 -24,-163 -89,-222c-87,-78 142,-71 -2320,-71c-2029,0 -2208,1 -2241,17c-51,22 -116,84 -142,132l-22,41l-5,1023l-5,1024l-24,19c-32,26 -67,24 -96,-6z"></path><path d="M2589,1862c-64,-33 -115,-101 -124,-165l-7,-42l-478,-161c-464,-157 -479,-161 -496,-143c-56,63 -188,87 -269,50c-202,-93 -169,-392 49,-441c118,-26 254,59 272,172c4,20 12,44 18,51c6,8 223,85 483,173l472,159l28,-27c94,-88 232,-86 322,4l42,41l302,-67c399,-89 377,-83 377,-107c0,-34 37,-95 80,-132c119,-101 305,-56 367,90c17,42 17,134 0,176c-22,52 -68,98 -122,123c-89,42 -177,27 -255,-43l-48,-43l-264,59c-145,33 -295,67 -333,75l-71,17l-18,52c-48,136 -199,196 -327,129zM2755,1715c35,-34 33,-78 -5,-117c-26,-25 -36,-29 -63,-24c-37,7 -77,47 -77,77c0,77 92,118 145,64zM3865,1465c50,-49 24,-130 -46,-141c-81,-13 -128,89 -65,142c36,31 80,31 111,-1zM1367,1248c30,-34 34,-55 19,-92c-34,-82 -156,-56 -156,33c0,73 89,111 137,59z"></path></g></g></g></svg>