<svg version="1.1" xmlns="http://www.w3.org/2000/svg" xmlns:xlink="http://www.w3.org/1999/xlink" width="512.000000pt" height="512.000000pt" viewBox="0,0,256,256"><g fill="#0cf2df" fill-rule="nonzero" stroke="none" stroke-width="1" stroke-linecap="butt" stroke-linejoin="miter" stroke-miterlimit="10" stroke-dasharray="" stroke-dashoffset="0" font-family="none" font-weight="none" font-size="none" text-anchor="none" style="mix-blend-mode: normal"><g transform="translate(0.03197,-0.10821) scale(0.5,0.5)"><g transform="translate(0,512) scale(0.1,-0.1)"><path d="M2396,4890c-230,-27 -463,-104 -645,-215l-59,-35h-749c-829,0 -819,1 -880,-62c-59,-60 -63,-84 -63,-331c0,-212 1,-226 21,-251c28,-36 80,-36 108,0c20,25 21,39 21,245c0,214 0,218 22,233c20,14 100,16 665,16c354,0 643,-3 643,-6c0,-4 -40,-48 -89,-100c-101,-106 -200,-248 -263,-379c-60,-125 -60,-175 0,-300c130,-271 383,-538 650,-685l81,-45l1,-197v-198l-492,-1c-352,0 -502,-4 -523,-12c-47,-18 -71,-39 -97,-82l-23,-40l-3,-447l-3,-448h-284h-285v1095v1096l-25,24c-31,32 -69,32 -101,0l-24,-24l2,-1305l3,-1304l30,-43c17,-23 50,-53 74,-66l44,-23h479h479l24,25c32,31 32,69 0,100l-24,25h-465c-409,0 -466,2 -480,16c-13,12 -16,39 -16,125v109h2410h2410v-109c0,-86 -3,-113 -16,-125c-14,-14 -190,-16 -1788,-16h-1773l-27,-21c-34,-27 -36,-77 -3,-107c23,-22 27,-22 405,-22h382v-245v-245h-81c-44,0 -88,-4 -98,-10c-23,-12 -91,-168 -91,-209c0,-32 38,-71 69,-71c31,0 63,32 87,86l24,54h500h500l24,-54c24,-54 56,-86 87,-86c31,0 69,39 69,71c0,41 -68,197 -91,209c-10,6 -54,10 -98,10h-81v245v245h998h999l44,23c24,13 58,43 74,66l30,43l3,1661c2,1192 0,1673 -8,1700c-6,21 -27,56 -47,78c-64,71 -43,69 -885,69h-748l-79,45c-158,92 -340,158 -526,190c-113,19 -325,27 -429,15zM2812,4725c442,-77 845,-378 1043,-778c45,-91 43,-112 -27,-234c-219,-384 -561,-632 -998,-724c-137,-29 -380,-31 -515,-5c-453,86 -832,364 -1040,760c-25,48 -45,97 -45,109c0,34 54,141 128,252c74,113 248,293 352,366c207,145 449,240 685,268c103,13 306,6 417,-14zM4948,4474l22,-15v-1455v-1454h-285h-284l-3,448c-3,490 -2,478 -65,536c-45,42 -89,47 -351,44c-242,-3 -244,-3 -263,-27c-25,-31 -24,-69 3,-98c21,-23 23,-23 263,-23c174,0 244,-3 253,-12c9,-9 12,-120 12,-440v-428h-1690h-1690v428c0,320 3,431 12,440c9,9 133,12 495,12h483v-307c0,-172 4,-324 10,-344c22,-78 117,-122 186,-86c16,8 133,90 259,183c127,92 237,168 245,168c8,0 119,-76 245,-168c127,-92 243,-175 259,-183c69,-36 164,8 186,86c6,20 10,172 10,344v307h107c96,0 109,2 130,22c28,26 30,67 4,99c-18,22 -28,24 -130,27l-111,4v197v197l38,18c20,10 88,51 150,93c217,143 416,366 530,591c51,102 57,120 57,175c0,52 -7,76 -43,152c-63,131 -158,268 -261,377c-50,53 -91,99 -91,102c0,3 289,6 643,6c565,0 645,-2 665,-16zM2130,2874c268,-78 592,-78 860,0c47,13 93,28 103,31c16,7 17,-22 17,-524c0,-292 -3,-531 -7,-531c-5,0 -122,84 -262,185c-179,131 -262,185 -280,185c-19,0 -100,-53 -276,-181c-137,-100 -255,-183 -262,-186c-11,-4 -13,92 -13,527c0,503 1,532 18,525c9,-3 55,-18 102,-31zM2820,755v-245h-260h-260v245v245h260h260z"></path><path d="M2405,4596c-286,-66 -502,-274 -576,-554c-28,-105 -28,-268 -1,-373c57,-213 203,-393 396,-488c122,-60 190,-75 336,-75c146,0 214,15 336,75c147,72 263,189 341,343c102,202 102,460 0,662c-98,194 -256,329 -462,394c-90,28 -281,36 -370,16zM2699,4445c146,-35 302,-149 379,-277c68,-115 100,-261 83,-383c-36,-249 -186,-427 -431,-511c-77,-27 -263,-27 -340,0c-266,91 -430,308 -433,571c-2,146 38,265 126,380c78,102 213,190 342,221c70,17 198,17 274,-1z"></path><path d="M2498,4244c-15,-8 -46,-45 -68,-84c-23,-38 -47,-73 -53,-78c-7,-5 -48,-18 -92,-28c-57,-13 -88,-26 -107,-45c-59,-58 -50,-120 30,-213l58,-66l-8,-86c-9,-103 4,-143 54,-174c45,-27 80,-25 163,10c38,17 76,30 85,30c9,0 47,-13 85,-30c83,-35 118,-37 163,-10c50,31 63,71 54,174l-8,86l58,66c80,93 89,155 30,213c-19,19 -50,32 -107,45c-44,10 -85,23 -92,28c-6,5 -30,40 -53,79c-24,41 -53,75 -70,84c-36,19 -87,19 -122,-1zM2603,4016c40,-68 52,-75 145,-96c28,-7 52,-14 52,-17c0,-3 -23,-32 -51,-66l-50,-60l7,-79c4,-43 5,-78 2,-78c-2,0 -32,11 -66,25c-34,14 -71,25 -82,25c-11,0 -47,-11 -80,-25c-33,-14 -62,-25 -66,-25c-4,0 -4,35 0,78l7,79l-50,60c-28,34 -51,63 -51,66c0,3 24,10 53,17c92,21 104,28 144,96c20,35 40,64 43,64c3,0 23,-29 43,-64z"></path><path d="M396,4249c-52,-41 -20,-129 48,-129c34,0 76,41 76,75c0,33 -41,75 -73,75c-13,0 -36,-9 -51,-21z"></path><path d="M636,4249c-52,-41 -20,-129 48,-129c34,0 76,41 76,75c0,33 -41,75 -73,75c-13,0 -36,-9 -51,-21z"></path><path d="M875,4245c-47,-46 -17,-125 49,-125c34,0 76,41 76,75c0,33 -42,75 -75,75c-14,0 -37,-11 -50,-25z"></path></g></g></g></svg>