<svg version="1.1" xmlns="http://www.w3.org/2000/svg" xmlns:xlink="http://www.w3.org/1999/xlink" width="512.000000pt" height="512.000000pt" viewBox="0,0,256,256"><g fill="#0cf2df" fill-rule="nonzero" stroke="none" stroke-width="1" stroke-linecap="butt" stroke-linejoin="miter" stroke-miterlimit="10" stroke-dasharray="" stroke-dashoffset="0" font-family="none" font-weight="none" font-size="none" text-anchor="none" style="mix-blend-mode: normal"><g transform="translate(-0.00123,0) scale(0.5,0.5)"><g transform="translate(0,512) scale(0.1,-0.1)"><path d="M136,4755c-21,-7 -54,-28 -72,-46c-69,-67 -65,64 -62,-1781l3,-1666l30,-43c17,-23 50,-53 74,-66l44,-23h999h998l-2,-242l-3,-243l-85,-5c-47,-3 -90,-8 -96,-12c-18,-12 -84,-174 -84,-207c0,-32 38,-71 69,-71c31,0 63,32 87,86l24,54h500h500l24,-54c24,-54 56,-86 87,-86c31,0 69,39 69,71c0,33 -66,195 -84,207c-6,4 -49,9 -96,12l-85,5l-3,243l-2,242h380h381l24,25c32,31 32,69 0,100l-24,25h-1775c-1600,0 -1776,2 -1790,16c-13,12 -16,39 -16,125v109h2410h2410v-109c0,-86 -3,-113 -16,-125c-14,-14 -70,-16 -474,-16c-322,0 -467,-3 -484,-11c-34,-16 -47,-57 -31,-96c7,-16 20,-33 30,-37c9,-3 232,-6 494,-6h478l44,23c24,13 58,43 74,66l30,43l3,1666c3,1860 8,1717 -68,1786c-21,19 -56,39 -77,45c-26,8 -770,11 -2418,11c-1999,-1 -2386,-3 -2419,-15zM4948,4604l22,-15v-1455v-1454h-2410h-2410v1454v1455l22,15c20,14 263,16 2388,16c2125,0 2368,-2 2388,-16zM2820,885v-245h-260h-260v245v245h260h260z"></path><path d="M4213,4375c-33,-14 -75,-65 -121,-147l-27,-47l-93,-22c-62,-14 -102,-29 -122,-46c-38,-32 -57,-90 -42,-132l11,-31h-84h-84l-3,158c-3,157 -3,159 -32,196c-45,60 -71,66 -276,66c-207,0 -239,-9 -281,-77c-22,-35 -24,-51 -27,-190l-4,-153h-928h-929l-20,-26c-26,-33 -27,-65 -2,-95l19,-24l931,-3l931,-2v-895v-895h-70h-69l-3,424c-3,411 -4,425 -24,452c-49,66 -59,69 -252,72c-97,2 -192,1 -210,-3c-50,-9 -107,-66 -121,-120c-7,-28 -11,-180 -11,-435v-391l-67,3l-68,3l-5,562c-5,548 -6,562 -26,589c-50,68 -55,69 -279,69c-224,0 -229,-1 -279,-69c-20,-27 -21,-41 -26,-589l-5,-562l-67,-3l-66,-3l-4,213c-3,234 -7,250 -68,301c-42,35 -68,39 -272,35c-196,-3 -207,-7 -255,-78c-22,-32 -23,-41 -23,-252v-219l-118,3l-117,3v890v890l191,5c171,4 194,7 213,24c27,25 28,79 1,106c-19,19 -33,20 -228,20c-196,0 -209,-2 -247,-23c-22,-13 -49,-40 -62,-62l-23,-40v-913c0,-748 2,-919 14,-945c17,-42 66,-83 114,-97c26,-8 590,-10 1878,-8l1840,3l41,27c22,14 48,43 59,65c18,36 19,74 22,811c1,424 4,772 6,772c2,0 25,-10 51,-21c68,-30 119,-22 164,27l34,37l-6,112l-6,112l51,59c93,109 104,142 72,210c-20,43 -50,59 -153,83c-44,11 -84,22 -89,25c-5,3 -31,42 -58,86c-38,63 -58,85 -90,100c-47,23 -58,24 -101,5zM3500,3536c0,-676 0,-684 21,-710c26,-33 79,-36 109,-6c19,19 20,33 20,500v480h145h146l-6,-102c-7,-117 0,-139 54,-175c42,-28 75,-29 141,-3c28,11 53,20 55,20c3,0 5,-339 5,-753c0,-572 -3,-756 -12,-765c-9,-9 -83,-12 -270,-12h-258v280v281l-25,24c-31,32 -69,32 -100,0l-25,-24v-281v-280h-160h-160v1098c0,604 3,1102 7,1105c3,4 75,7 160,7h153zM4305,4143c21,-37 47,-74 57,-82c10,-9 57,-25 105,-36l86,-20l-62,-70l-62,-70l5,-102l6,-101l-79,34c-44,19 -88,34 -99,34c-11,0 -56,-15 -100,-34l-80,-34l5,101l4,102l-60,70l-60,69l87,21c48,12 93,24 99,28c6,4 31,41 55,82c24,41 45,75 48,75c3,0 23,-30 45,-67zM1980,2550v-540h-155h-155v540v540h155h155zM2740,2410v-401l-157,3l-158,3l-3,385c-1,212 0,391 3,397c3,10 44,13 160,13h155zM1225,2210v-195l-157,-3l-158,-3v201v201l158,-3l157,-3z"></path><path d="M392,4357c-45,-48 -11,-127 55,-127c32,0 73,42 73,75c0,35 -42,75 -78,75c-17,0 -37,-9 -50,-23z"></path><path d="M632,4357c-45,-48 -11,-127 55,-127c32,0 73,42 73,75c0,35 -42,75 -78,75c-17,0 -37,-9 -50,-23z"></path><path d="M872,4357c-12,-13 -22,-36 -22,-51c0,-34 41,-76 75,-76c33,0 75,42 75,75c0,35 -42,75 -78,75c-17,0 -37,-9 -50,-23z"></path><path d="M786,3569c-36,-28 -36,-80 0,-108c25,-20 39,-21 246,-21c121,0 227,4 237,10c10,5 24,22 30,39c10,24 10,34 -3,59c-8,16 -23,32 -31,36c-9,3 -115,6 -234,6c-206,0 -220,-1 -245,-21z"></path><path d="M786,3329c-33,-26 -36,-79 -6,-109c18,-18 33,-20 139,-20c117,0 120,1 140,26c24,30 26,43 10,77c-17,37 -50,47 -158,47c-84,0 -102,-3 -125,-21z"></path></g></g></g></svg>