<svg version="1.1" xmlns="http://www.w3.org/2000/svg" xmlns:xlink="http://www.w3.org/1999/xlink" width="512.000000pt" height="512.000000pt" viewBox="0,0,256,256"><g fill="#0cf2df" fill-rule="nonzero" stroke="none" stroke-width="1" stroke-linecap="butt" stroke-linejoin="miter" stroke-miterlimit="10" stroke-dasharray="" stroke-dashoffset="0" font-family="none" font-weight="none" font-size="none" text-anchor="none" style="mix-blend-mode: normal"><g transform="translate(0,0.06866) scale(0.5,0.5)"><g transform="translate(0,512) scale(0.1,-0.1)"><path d="M2474,4809c-196,-18 -383,-109 -527,-256c-67,-68 -115,-134 -142,-192l-18,-41h-711c-672,0 -713,-1 -751,-19c-53,-24 -83,-55 -106,-105c-17,-37 -19,-70 -19,-343v-303h-27c-35,0 -102,-31 -125,-56c-45,-51 -48,-75 -48,-437v-344l23,-21c31,-29 77,-29 105,1c21,23 22,30 24,363l3,339l630,3c583,2 631,1 643,-15c16,-22 18,-1223 2,-1254c-10,-18 -28,-19 -630,-19c-340,0 -625,3 -634,6c-14,5 -16,29 -16,166c0,155 -1,159 -25,183c-31,32 -69,32 -100,0c-25,-24 -25,-27 -25,-192c0,-155 2,-172 23,-213c26,-54 73,-87 133,-96l44,-6v-358v-358l28,-53c22,-43 38,-59 81,-81l53,-28h894h894v-240v-240h-69c-106,0 -116,-7 -161,-106c-44,-95 -50,-142 -21,-168c25,-23 76,-23 100,-2c11,10 29,42 41,72l22,54h498h498l22,-54c12,-30 30,-62 41,-72c24,-21 75,-21 100,2c29,26 23,73 -21,168c-45,99 -55,106 -161,106h-69v240v240h439c488,0 474,-2 487,67c5,26 1,37 -19,57l-26,26h-1734c-1667,0 -1735,1 -1750,18c-14,15 -17,40 -17,125v107h2210h2210v-108c0,-93 -3,-111 -18,-125c-16,-15 -54,-17 -321,-17c-194,0 -309,-4 -322,-11c-48,-25 -44,-105 7,-128c17,-7 125,-11 333,-11h309l53,28c43,22 59,38 81,81l28,53v358v358l44,6c60,9 107,42 134,96l22,44v648c0,691 0,687 -48,742c-23,25 -90,56 -124,56h-28v304v304l-28,53c-22,43 -38,59 -81,81l-53,28h-713h-713l-13,32c-36,87 -158,226 -264,303c-118,84 -260,140 -386,150c-35,4 -75,7 -89,9c-14,1 -61,-1 -106,-5zM2662,4655c78,-7 207,-56 284,-106c110,-71 254,-245 254,-306c0,-23 -57,-121 -101,-172c-84,-98 -212,-180 -349,-222c-60,-19 -98,-24 -190,-24c-92,0 -130,5 -190,24c-137,42 -265,124 -349,222c-44,51 -101,149 -101,172c0,61 134,224 248,301c111,76 304,132 412,120c14,-2 51,-6 82,-9zM1816,4104c115,-198 310,-346 529,-405c96,-26 296,-31 390,-10c229,50 434,196 555,395l53,86h695c633,0 697,-1 714,-17c17,-15 18,-38 18,-310v-293h-274c-261,0 -274,-1 -300,-21c-34,-27 -36,-77 -3,-107c23,-21 29,-22 398,-24l374,-3l3,-634c2,-501 0,-636 -10,-643c-7,-4 -293,-8 -635,-8c-605,0 -623,1 -633,19c-6,13 -10,227 -10,626c0,399 4,613 10,626c10,17 22,19 132,19c111,0 124,2 145,22c31,29 30,72 -2,103c-23,24 -30,25 -147,25c-147,0 -187,-10 -232,-56c-50,-51 -56,-96 -56,-399v-265h-90h-90v289c0,181 -4,300 -11,318c-15,40 -48,73 -94,94c-38,17 -79,19 -685,19c-606,0 -647,-2 -685,-19c-46,-21 -79,-54 -94,-94c-7,-18 -11,-137 -11,-318v-289h-89h-90l-3,293c-3,289 -3,292 -28,335c-13,24 -40,53 -60,65c-35,22 -38,22 -592,25l-558,3v291c0,257 2,294 17,310c15,17 51,18 713,18h697zM3198,3283l3,-113h-641h-640v108c0,60 3,112 7,115c3,4 290,6 637,5l631,-3zM3200,2890v-129l-64,48c-88,67 -163,94 -247,89c-99,-5 -179,-49 -297,-163l-97,-93l-25,20c-63,51 -122,72 -200,73c-67,0 -82,-4 -139,-35c-35,-18 -96,-65 -137,-103l-74,-69v246v246h640h640zM2993,2724c29,-15 87,-61 130,-104l77,-78l-2,-213l-3,-214h-635h-635l-3,79l-3,79l72,93c105,139 211,224 279,224c36,0 99,-34 157,-85c69,-61 102,-61 152,-2c79,93 189,196 236,220c64,34 112,34 178,1zM1770,2390c0,-223 3,-298 14,-323c17,-42 66,-83 114,-97c51,-14 1273,-14 1324,0c48,14 97,55 114,97c11,25 14,100 14,323v290h89h90l3,-292c3,-250 5,-297 20,-323c23,-42 67,-80 107,-94c24,-8 197,-11 572,-11h539v-165v-165h-2210h-2210v165v165h539c375,0 548,3 572,11c40,14 84,52 107,94c15,26 17,73 20,323l3,292h90h89zM2820,840v-240h-260h-260v240v240h260h260z"></path><path d="M2467,4576c-191,-54 -298,-269 -227,-459c76,-202 336,-280 517,-155c93,63 145,168 144,289c0,130 -81,253 -199,306c-68,30 -168,38 -235,19zM2628,4424c80,-33 123,-97 123,-181c0,-194 -252,-265 -354,-101c-33,53 -39,136 -14,185c48,91 156,134 245,97z"></path><path d="M620,3963c-51,-19 -68,-85 -30,-123c30,-30 83,-27 109,6c12,15 21,33 21,40c0,26 -23,62 -47,73c-26,12 -30,12 -53,4z"></path><path d="M853,3960c-26,-11 -43,-40 -43,-74c0,-63 89,-90 129,-40c12,15 21,33 21,40c0,26 -23,62 -47,73c-28,13 -30,13 -60,1z"></path><path d="M1093,3960c-26,-11 -43,-40 -43,-74c0,-63 89,-90 129,-40c12,15 21,33 21,40c0,26 -23,62 -47,73c-28,13 -30,13 -60,1z"></path><path d="M4017,3058c-34,-32 -229,-518 -225,-560c2,-20 13,-38 30,-51c37,-28 74,-15 107,36l24,37h112h111l15,-32c8,-18 26,-39 42,-48c24,-13 30,-13 54,0c15,9 34,27 42,41c13,24 8,40 -86,275c-127,313 -121,300 -150,313c-35,16 -49,14 -76,-11zM4089,2739c11,-29 21,-56 21,-60c0,-5 -23,-9 -51,-9c-28,0 -49,4 -47,8c2,4 12,31 22,60c11,29 23,52 27,52c3,0 16,-23 28,-51z"></path><path d="M4424,3068c-40,-19 -44,-47 -44,-319v-261l30,-30l31,-30l112,4c131,5 183,24 242,90c53,57 67,100 73,209c6,134 -12,194 -82,264c-40,40 -67,57 -106,69c-61,18 -223,21 -256,4zM4650,2912c49,-24 70,-71 70,-157c0,-118 -48,-175 -147,-175h-43v175v175h43c23,0 58,-8 77,-18z"></path><path d="M542,3119c-91,-46 -105,-104 -100,-404c3,-201 4,-212 28,-253c34,-60 81,-87 150,-86c52,0 67,7 260,118c113,64 215,127 227,138c36,33 57,100 48,154c-10,69 -61,112 -284,238c-219,124 -253,134 -329,95zM815,2881c129,-73 190,-114 190,-125c0,-12 -63,-53 -194,-129c-184,-105 -194,-110 -207,-92c-11,15 -14,64 -14,218c0,183 6,237 28,237c4,0 93,-49 197,-109z"></path></g></g></g></svg>